<svg xmlns="http://www.w3.org/2000/svg" xmlns:xlink="http://www.w3.org/1999/xlink" width="1060px" height="862px" viewBox="0 0 1060 862" version="1.1" style="background: #FFFFFF;">
    <!-- Generator: Sketch 40.3 (33839) - http://www.bohemiancoding.com/sketch -->
    <title>Artboard 2</title>
    <desc>Created with Sketch.</desc>
    <defs/>
    <g id="Page-1" stroke="none" stroke-width="1" fill="none" fill-rule="evenodd">
        <g id="Artboard-2">
            <g id="HtmlToSvg" transform="translate(-68.000000, 0.000000)">
                <g id="Created-by-HiQPdf">
                    <g id="Group">
                        <g transform="translate(220.000000, 88.000000)" id="Shape" fill="#F5F5F5">
                            <path d="M3,0 L777,0 C778.657,0 780,1.3431 780,3 L780,169 C780,170.657 778.657,172 777,172 L3,172 C1.343,172 0,170.657 0,169 L0,3 C0,1.3431 1.343,0 3,0"/>
                        </g>
                        <g transform="translate(220.000000, 272.000000)" id="Shape" fill="#F5F5F5">
                            <path d="M381,0 C382.657,0 384,1.343 384,3 L384,212 C384,213.657 382.657,215 381,215 L3,215 C1.343,215 0,213.657 0,212 L0,3 C0,1.343 1.343,0 3,0 L381,0 Z"/>
                        </g>
                        <g transform="translate(220.000000, 499.000000)" id="Shape" fill="#F5F5F5">
                            <path d="M3,0 L381,0 C382.657,0 384,1.343 384,3 L384,253 C384,254.657 382.657,256 381,256 L3,256 C1.343,256 0,254.657 0,253 L0,3 C0,1.343 1.343,0 3,0"/>
                        </g>
                        <g transform="translate(616.000000, 272.000000)" id="Shape" fill="#F5F5F5">
                            <path d="M3,0 L381,0 C382.657,0 384,1.343 384,3 L384,576 C384,577.657 382.657,579 381,579 L3,579 C1.343,579 0,577.657 0,576 L0,3 C0,1.343 1.343,0 3,0"/>
                        </g>
                        <g transform="translate(391.000000, 135.000000)" id="Shape" fill-opacity="0.0392157" fill="#000000">
                            <polyline points="0 0 134 0 134 107 0 107 0 0"/>
                        </g>
                        <g transform="translate(384.000000, 127.000000)" id="Shape" fill="#FFFFFF">
                            <path d="M3,0 L145,0 C146.657,0 148,1.343 148,3 L148,118 C148,119.657 146.657,121 145,121 L3,121 C1.343,121 0,119.657 0,118 L0,3 C0,1.343 1.343,0 3,0"/>
                        </g>
                        <g transform="translate(543.000000, 135.000000)" id="Shape" fill-opacity="0.0392157" fill="#000000">
                            <polyline points="0 0 134 0 134 107 0 107 0 0"/>
                        </g>
                        <g transform="translate(536.000000, 127.000000)" id="Shape" fill="#FFFFFF">
                            <path d="M3,0 L145,0 C146.657,0 148,1.343 148,3 L148,118 C148,119.657 146.657,121 145,121 L3,121 C1.343,121 0,119.657 0,118 L0,3 C0,1.343 1.343,0 3,0"/>
                        </g>
                        <g transform="translate(695.000000, 135.000000)" id="Shape" fill-opacity="0.0392157" fill="#000000">
                            <polyline points="0 0 134 0 134 107 0 107 0 0"/>
                        </g>
                        <g transform="translate(688.000000, 127.000000)" id="Shape" fill="#FFFFFF">
                            <path d="M3,0 L145,0 C146.657,0 148,1.343 148,3 L148,118 C148,119.657 146.657,121 145,121 L3,121 C1.343,121 0,119.657 0,118 L0,3 C0,1.343 1.343,0 3,0"/>
                        </g>
                        <g transform="translate(847.000000, 135.000000)" id="Shape" fill-opacity="0.0392157" fill="#000000">
                            <polyline points="0 0 134 0 134 107 0 107 0 0"/>
                        </g>
                        <g transform="translate(840.000000, 127.000000)" id="Shape" fill="#FFFFFF">
                            <path d="M3,0 L145,0 C146.657,0 148,1.343 148,3 L148,118 C148,119.657 146.657,121 145,121 L3,121 C1.343,121 0,119.657 0,118 L0,3 C0,1.343 1.343,0 3,0"/>
                        </g>
                        <g transform="translate(239.000000, 546.000000)" id="Shape" fill-opacity="0.0392157" fill="#000000">
                            <polyline points="0 0 346 0 346 23 0 23 0 0"/>
                        </g>
                        <g transform="translate(232.000000, 538.000000)" id="Shape" fill="#FFFFFF">
                            <path d="M3,0 L357,0 C358.657,0 360,1.343 360,3 L360,34 C360,35.657 358.657,37 357,37 L3,37 C1.343,37 0,35.657 0,34 L0,3 C0,1.343 1.343,0 3,0"/>
                        </g>
                        <g transform="translate(232.000000, 393.000000)" id="Shape" fill="#FFFFFF">
                            <path d="M3,0 L357,0 C358.657,0 360,1.343 360,3 L360,34 C360,35.657 358.657,37 357,37 L3,37 C1.343,37 0,35.657 0,34 L0,3 C0,1.343 1.343,0 3,0"/>
                        </g>
                        <g transform="translate(239.000000, 587.000000)" id="Shape" fill-opacity="0.0392157" fill="#000000">
                            <polyline points="0 0 346 0 346 23 0 23 0 0"/>
                        </g>
                        <g transform="translate(232.000000, 579.000000)" id="Shape" fill="#FFFFFF">
                            <path d="M3,0 L357,0 C358.657,0 360,1.343 360,3 L360,34 C360,35.657 358.657,37 357,37 L3,37 C1.343,37 0,35.657 0,34 L0,3 C0,1.343 1.343,0 3,0"/>
                        </g>
                        <g transform="translate(239.000000, 628.000000)" id="Shape" fill-opacity="0.0392157" fill="#000000">
                            <polyline points="0 0 346 0 346 23 0 23 0 0"/>
                        </g>
                        <g transform="translate(232.000000, 620.000000)" id="Shape" fill="#FFFFFF">
                            <path d="M3,0 L357,0 C358.657,0 360,1.343 360,3 L360,34 C360,35.657 358.657,37 357,37 L3,37 C1.343,37 0,35.657 0,34 L0,3 C0,1.343 1.343,0 3,0"/>
                        </g>
                        <g transform="translate(239.000000, 669.000000)" id="Shape" fill-opacity="0.0392157" fill="#000000">
                            <polyline points="0 0 346 0 346 23 0 23 0 0"/>
                        </g>
                        <g transform="translate(232.000000, 661.000000)" id="Shape" fill="#FFFFFF">
                            <path d="M3,0 L357,0 C358.657,0 360,1.343 360,3 L360,34 C360,35.657 358.657,37 357,37 L3,37 C1.343,37 0,35.657 0,34 L0,3 C0,1.343 1.343,0 3,0"/>
                        </g>
                        <g transform="translate(239.000000, 710.000000)" id="Shape" fill-opacity="0.0392157" fill="#000000">
                            <polyline points="0 0 346 0 346 23 0 23 0 0"/>
                        </g>
                        <g transform="translate(232.000000, 702.000000)" id="Shape" fill="#FFFFFF">
                            <path d="M3,0 L357,0 C358.657,0 360,1.343 360,3 L360,34 C360,35.657 358.657,37 357,37 L3,37 C1.343,37 0,35.657 0,34 L0,3 C0,1.343 1.343,0 3,0"/>
                        </g>
                        <g transform="translate(635.000000, 319.000000)" id="Shape" fill-opacity="0.0392157" fill="#000000">
                            <polyline points="0 0 346 0 346 114 0 114 0 0"/>
                        </g>
                        <g transform="translate(628.000000, 311.000000)" id="Shape" fill="#FFFFFF">
                            <path d="M3,0 L357,0 C358.657,0 360,1.343 360,3 L360,125 C360,126.657 358.657,128 357,128 L3,128 C1.343,128 0,126.657 0,125 L0,3 C0,1.343 1.343,0 3,0"/>
                        </g>
                        <g transform="translate(635.000000, 451.000000)" id="Shape" fill-opacity="0.0392157" fill="#000000">
                            <polyline points="0 0 346 0 346 114 0 114 0 0"/>
                        </g>
                        <g transform="translate(628.000000, 443.000000)" id="Shape" fill="#FFFFFF">
                            <path d="M3,0 L357,0 C358.657,0 360,1.343 360,3 L360,125 C360,126.657 358.657,128 357,128 L3,128 C1.343,128 0,126.657 0,125 L0,3 C0,1.343 1.343,0 3,0"/>
                        </g>
                        <g transform="translate(635.000000, 583.000000)" id="Shape" fill-opacity="0.0392157" fill="#000000">
                            <polyline points="0 0 346 0 346 114 0 114 0 0"/>
                        </g>
                        <g transform="translate(628.000000, 575.000000)" id="Shape" fill="#FFFFFF">
                            <path d="M3,0 L357,0 C358.657,0 360,1.343 360,3 L360,125 C360,126.657 358.657,128 357,128 L3,128 C1.343,128 0,126.657 0,125 L0,3 C0,1.343 1.343,0 3,0"/>
                        </g>
                        <g transform="translate(635.000000, 715.000000)" id="Shape" fill-opacity="0.0392157" fill="#000000">
                            <polyline points="0 0 346 0 346 114 0 114 0 0"/>
                        </g>
                        <g transform="translate(628.000000, 707.000000)" id="Shape" fill="#FFFFFF">
                            <path d="M3,0 L357,0 C358.657,0 360,1.343 360,3 L360,125 C360,126.657 358.657,128 357,128 L3,128 C1.343,128 0,126.657 0,125 L0,3 C0,1.343 1.343,0 3,0"/>
                        </g>
                        <g transform="translate(273.000000, 159.000000)" id=".com" fill="#B3B3B3">
                            
                        </g>
                        <g transform="translate(438.000000, 162.000000)" id=".co" fill="#000000">
                            
                        </g>
                        <g transform="translate(594.000000, 155.000000)" id=".io" fill="#000000">
                            
                        </g>
                        <g transform="translate(737.000000, 157.000000)" id=".net" fill="#000000">
                            
                        </g>
                        <g transform="translate(887.000000, 162.000000)" id=".xyz" fill="#000000">
                            
                        </g>
                        
                        
                        
                    </g>
                </g>
            </g>
            <g id="social-networks" transform="translate(170.000000, 290.000000)">
                <rect id="Rectangle" fill-opacity="0.699999988" fill="#B3B3B3" x="62" y="36" width="76" height="9" rx="4.5"/>
                <rect id="Rectangle" fill-opacity="0.699999988" fill="#B3B3B3" x="62" y="77" width="76" height="9" rx="4.5"/>
                <rect id="Rectangle" fill-opacity="0.699999988" fill="#B3B3B3" x="62" y="118" width="76" height="9" rx="4.5"/>
                <rect id="Rectangle" fill-opacity="0.699999988" fill="#B3B3B3" x="62" y="159" width="76" height="9" rx="4.5"/>
                <rect id="Rectangle" fill-opacity="0.699999988" fill="#B3B3B3" x="305" y="77" width="41" height="9" rx="4.5"/>
                <rect id="Rectangle" fill-opacity="0.699999988" fill="#B3B3B3" x="305" y="36" width="41" height="9" rx="4.5"/>
                <rect id="Rectangle" fill="#52CA6F" x="305" y="118" width="41" height="9" rx="4.5"/>
                <rect id="Rectangle" fill-opacity="0.699999988" fill="#B3B3B3" x="305" y="159" width="41" height="9" rx="4.5"/>
                <rect id="Rectangle" fill-opacity="0.799999952" fill="#C9C9C9" x="33" y="77" width="20.0703125" height="9" rx="4.5"/>
                <rect id="Rectangle" fill-opacity="0.799999952" fill="#C9C9C9" x="33" y="36" width="20.0703125" height="9" rx="4.5"/>
                <rect id="Rectangle" fill-opacity="0.799999952" fill="#C9C9C9" x="33" y="118" width="20.0703125" height="9" rx="4.5"/>
                <rect id="Rectangle" fill-opacity="0.799999952" fill="#C9C9C9" x="33" y="159" width="20.0703125" height="9" rx="4.5"/>
                <rect id="Rectangle" fill="#B3B3B3" x="0" y="0" width="138" height="9" rx="4.5"/>
            </g>
            <g id="startup-domains" transform="translate(170.000000, 514.000000)">
                <rect id="Rectangle" fill-opacity="0.900000036" fill="#3FC55F" x="305" y="80" width="41" height="9" rx="4.5"/>
                <rect id="Rectangle" fill-opacity="0.900000036" fill="#3FC55F" x="305" y="203" width="41" height="9" rx="4.5"/>
                <rect id="Rectangle" fill-opacity="0.900000036" fill="#3FC55F" x="305" y="39" width="41" height="9" rx="4.5"/>
                <rect id="Rectangle" fill-opacity="0.900000036" fill="#3FC55F" x="305" y="121" width="41" height="9" rx="4.5"/>
                <rect id="Rectangle" fill-opacity="0.900000036" fill="#3FC55F" x="305" y="162" width="41" height="9" rx="4.5"/>
                <rect id="Rectangle" fill-opacity="0.5" fill="#B3B3B3" x="35" y="41" width="76" height="9" rx="4.5"/>
                <rect id="Rectangle" fill-opacity="0.5" fill="#B3B3B3" x="35" y="82" width="76" height="9" rx="4.5"/>
                <rect id="Rectangle" fill-opacity="0.5" fill="#B3B3B3" x="35" y="123" width="76" height="9" rx="4.5"/>
                <rect id="Rectangle" fill-opacity="0.5" fill="#B3B3B3" x="35" y="164" width="76" height="9" rx="4.5"/>
                <rect id="Rectangle" fill-opacity="0.5" fill="#B3B3B3" x="35" y="204" width="76" height="9" rx="4.5"/>
                <rect id="Rectangle" fill-opacity="0.300000012" fill="#B3B3B3" x="120" y="82" width="41" height="9" rx="4.5"/>
                <rect id="Rectangle" fill-opacity="0.300000012" fill="#B3B3B3" x="120" y="41" width="41" height="9" rx="4.5"/>
                <rect id="Rectangle" fill-opacity="0.300000012" fill="#B3B3B3" x="120" y="123" width="41" height="9" rx="4.5"/>
                <rect id="Rectangle" fill-opacity="0.300000012" fill="#B3B3B3" x="120" y="164" width="41" height="9" rx="4.5"/>
                <rect id="Rectangle" fill-opacity="0.300000012" fill="#B3B3B3" x="120" y="204" width="41" height="9" rx="4.5"/>
                <rect id="Rectangle" fill="#C9C9C9" x="7" y="82" width="20.0703125" height="9" rx="4.5"/>
                <rect id="Rectangle" fill="#C9C9C9" x="7" y="41" width="20.0703125" height="9" rx="4.5"/>
                <rect id="Rectangle" fill="#C9C9C9" x="7" y="123" width="20.0703125" height="9" rx="4.5"/>
                <rect id="Rectangle" fill="#C9C9C9" x="7" y="164" width="20.0703125" height="9" rx="4.5"/>
                <rect id="Rectangle" fill="#C9C9C9" x="7" y="204" width="20.0703125" height="9" rx="4.5"/>
                <rect id="Rectangle" fill="#B3B3B3" x="0" y="0" width="110" height="9" rx="4.5"/>
            </g>
            <g id="business-domains" transform="translate(170.000000, 781.000000)">
                <rect id="Rectangle" fill-opacity="0.900000036" fill="#3FC55F" x="305" y="79" width="41" height="9" rx="4.5"/>
                <rect id="Rectangle" fill-opacity="0.900000036" fill="#3FC55F" x="305" y="38" width="41" height="9" rx="4.5"/>
                <rect id="Rectangle" fill-opacity="0.699999988" fill="#B3B3B3" x="4" y="40" width="76" height="9" rx="4.5"/>
                <rect id="Rectangle" fill-opacity="0.699999988" fill="#B3B3B3" x="4" y="80" width="76" height="9" rx="4.5"/>
                <rect id="Rectangle" fill="#B3B3B3" x="0" y="0" width="120" height="9" rx="4.5"/>
            </g>
            <g id="sans-serif-logotype" transform="translate(560.000000, 290.000000)">
                <rect id="Rectangle" fill-opacity="0.300000012" fill="#B3B3B3" x="10" y="128" width="104" height="9" rx="4.5"/>
                <rect id="Rectangle" fill-opacity="0.300000012" fill="#B3B3B3" x="10" y="392" width="104" height="9" rx="4.5"/>
                <rect id="Rectangle" fill-opacity="0.300000012" fill="#B3B3B3" x="10" y="525" width="160" height="9" rx="4.5"/>
                <rect id="Rectangle" fill-opacity="0.300000012" fill="#B3B3B3" x="10" y="260" width="135" height="9" rx="4.5"/>
                <rect id="Rectangle" fill-opacity="0.900000036" fill="#3FC55F" x="303" y="127" width="51" height="9" rx="4.5"/>
                <rect id="Rectangle" fill-opacity="0.900000036" fill="#3FC55F" x="303" y="259" width="51" height="9" rx="4.5"/>
                <rect id="Rectangle" fill-opacity="0.900000036" fill="#3FC55F" x="303" y="391" width="51" height="9" rx="4.5"/>
                <rect id="Rectangle" fill-opacity="0.900000036" fill="#3FC55F" x="303" y="525" width="51" height="9" rx="4.5"/>
                <rect id="Rectangle" fill="#B3B3B3" x="0" y="0" width="138" height="9" rx="4.5"/>
            </g>
            <g id="default-tlds" transform="translate(170.000000, 25.000000)">
                <rect id="Rectangle" fill-opacity="0.900000036" fill="#3FC55F" x="650" y="177" width="51" height="9" rx="4.5"/>
                <rect id="Rectangle" fill-opacity="0.900000036" fill="#3FC55F" x="499" y="177" width="51" height="9" rx="4.5"/>
                <rect id="Rectangle" fill-opacity="0.900000036" fill="#3FC55F" x="348" y="177" width="51" height="9" rx="4.5"/>
                <rect id="Rectangle" fill-opacity="0.900000036" fill="#3FC55F" x="197" y="177" width="51" height="9" rx="4.5"/>
                <rect id="Rectangle" fill-opacity="0.699999988" fill="#B3B3B3" x="46" y="178" width="51" height="9" rx="4.5"/>
                <rect id="Rectangle" fill="#B3B3B3" x="0" y="79" width="93" height="9" rx="4.5"/>
                <rect id="Rectangle" fill-opacity="0.699999988" fill="#B3B3B3" x="20" y="0" width="123" height="13" rx="6.5"/>
            </g>
            <text id="launchaco" font-family="Avenir-Roman, Avenir" font-size="28" font-weight="normal" fill="#000000">
                
            </text>
        </g>
    </g>
</svg>